HIERARCHY
ROOT Hips
{
  OFFSET -25.4992 47.4658 0.522821
  CHANNELS 6 Xposition Yposition Zposition Zrotation Xrotation Yrotation
  JOINT Bip01_Pelvis
  {
    OFFSET 0 0 0
    CHANNELS 6 Xposition Yposition Zposition Zrotation Xrotation Yrotation
    JOINT Bip01_Spine
    {
      OFFSET 7.92815 1.03427 -0.957866
      CHANNELS 6 Xposition Yposition Zposition Zrotation Xrotation Yrotation
      JOINT Bip01_Spine1
      {
        OFFSET 14.2482 -0.00839019 0.000894789
        CHANNELS 6 Xposition Yposition Zposition Zrotation Xrotation Yrotation
        JOINT Bip01_Neck
        {
          OFFSET 16.1384 -3.98645 0.000135839
          CHANNELS 6 Xposition Yposition Zposition Zrotation Xrotation Yrotation
          JOINT Bip01_Neck1
          {
            OFFSET 9.69266 -0.00491233 0
            CHANNELS 6 Xposition Yposition Zposition Zrotation Xrotation Yrotation
            JOINT Bip01_Head
            {
              OFFSET 6.2355 0 0
              CHANNELS 6 Xposition Yposition Zposition Zrotation Xrotation Yrotation
              JOINT BN_Mouth_01
              {
                OFFSET 4.58056 2.14338 0
                CHANNELS 6 Xposition Yposition Zposition Zrotation Xrotation Yrotation
                End Site
                {
                  OFFSET 0 0 0
                }
              }
            }
          }
          JOINT Bip01_L_Clavicle
          {
            OFFSET -0.933029 -3.98291 -6.88005
            CHANNELS 6 Xposition Yposition Zposition Zrotation Xrotation Yrotation
            JOINT Bip01_L_UpperArm
            {
              OFFSET 15.6802 0 0
              CHANNELS 6 Xposition Yposition Zposition Zrotation Xrotation Yrotation
              JOINT Bip01_L_Forearm
              {
                OFFSET 15.3149 0 0
                CHANNELS 6 Xposition Yposition Zposition Zrotation Xrotation Yrotation
                JOINT Bip01_L_Hand
                {
                  OFFSET 16.178 0 0
                  CHANNELS 6 Xposition Yposition Zposition Zrotation Xrotation Yrotation
                  JOINT Bip01_L_Finger0
                  {
                    OFFSET 12.9992 0 0
                    CHANNELS 6 Xposition Yposition Zposition Zrotation Xrotation Yrotation
                    End Site
                    {
                      OFFSET 0 0 0
                    }
                  }
                }
              }
              JOINT BN__UpperArm_L_01
              {
                OFFSET 4.92586 2.56729 1.95639
                CHANNELS 6 Xposition Yposition Zposition Zrotation Xrotation Yrotation
                End Site
                {
                  OFFSET 0 0 0
                }
              }
            }
          }
          JOINT Bip01_R_Clavicle
          {
            OFFSET -1.90751 -3.34722 7.0168
            CHANNELS 6 Xposition Yposition Zposition Zrotation Xrotation Yrotation
            JOINT Bip01_R_UpperArm
            {
              OFFSET 15.6801 0 0
              CHANNELS 6 Xposition Yposition Zposition Zrotation Xrotation Yrotation
              JOINT Bip01_R_Forearm
              {
                OFFSET 15.3149 0 0
                CHANNELS 6 Xposition Yposition Zposition Zrotation Xrotation Yrotation
                JOINT Bip01_R_Hand
                {
                  OFFSET 16.1779 0 0
                  CHANNELS 6 Xposition Yposition Zposition Zrotation Xrotation Yrotation
                  JOINT Bip01_R_Finger0
                  {
                    OFFSET 12.9991 0 0
                    CHANNELS 6 Xposition Yposition Zposition Zrotation Xrotation Yrotation
                    End Site
                    {
                      OFFSET 0 0 0
                    }
                  }
                }
              }
              JOINT BN__UpperArm_R_01
              {
                OFFSET 4.92584 2.56728 -1.95638
                CHANNELS 6 Xposition Yposition Zposition Zrotation Xrotation Yrotation
                End Site
                {
                  OFFSET 0 0 0
                }
              }
            }
          }
        }
      }
      JOINT Bip01_L_Thigh
      {
        OFFSET -8.91231 -1.85462 5.82833
        CHANNELS 6 Xposition Yposition Zposition Zrotation Xrotation Yrotation
        JOINT Bip01_L_Calf
        {
          OFFSET 15.7566 0 0
          CHANNELS 6 Xposition Yposition Zposition Zrotation Xrotation Yrotation
          JOINT Bip01_L_HorseLink
          {
            OFFSET 16.2363 0 0
            CHANNELS 6 Xposition Yposition Zposition Zrotation Xrotation Yrotation
            JOINT Bip01_L_Foot
            {
              OFFSET 13.9816 0 0
              CHANNELS 6 Xposition Yposition Zposition Zrotation Xrotation Yrotation
              JOINT Bip01_L_Toe0
              {
                OFFSET 7.68594 5.03696 0
                CHANNELS 6 Xposition Yposition Zposition Zrotation Xrotation Yrotation
                End Site
                {
                  OFFSET 0 0 0
                }
              }
            }
          }
        }
      }
      JOINT Bip01_R_Thigh
      {
        OFFSET -6.80264 -1.57702 -6.62463
        CHANNELS 6 Xposition Yposition Zposition Zrotation Xrotation Yrotation
        JOINT Bip01_R_Calf
        {
          OFFSET 15.7566 0 0
          CHANNELS 6 Xposition Yposition Zposition Zrotation Xrotation Yrotation
          JOINT Bip01_R_HorseLink
          {
            OFFSET 16.2363 0 0
            CHANNELS 6 Xposition Yposition Zposition Zrotation Xrotation Yrotation
            JOINT Bip01_R_Foot
            {
              OFFSET 13.9816 0 0
              CHANNELS 6 Xposition Yposition Zposition Zrotation Xrotation Yrotation
              JOINT Bip01_R_Toe0
              {
                OFFSET 7.68597 5.03696 0
                CHANNELS 6 Xposition Yposition Zposition Zrotation Xrotation Yrotation
                End Site
                {
                  OFFSET 0 0 0
                }
              }
            }
          }
        }
      }
    }
    JOINT BN_Tail_01
    {
      OFFSET -7.9584 -2.82211 0
      CHANNELS 6 Xposition Yposition Zposition Zrotation Xrotation Yrotation
      JOINT BN_Tail_02
      {
        OFFSET 10.9082 0 0.00113176
        CHANNELS 6 Xposition Yposition Zposition Zrotation Xrotation Yrotation
        End Site
        {
          OFFSET 0 0 0
        }
      }
    }
  }
}
MOTION
Frames:	4
Frame Time:	0.0333333
35.3613 36.6491 -1.28296 -115.395 -77.2465 2.55657 2.10722e-006 1.3401e-007 1.92791e-006 -77.6311 19.7431 -104.929 6.85677 3.67464 -2.0649 1.4186 -11.4115 0.760366 14.2434 -0.00779849 0.000775965 -25.066 -9.04714 0.0760966 16.1385 -3.98891 -0.000211902 -25.0006 5.16793 -4.29118 9.69013 -0.00479743 1.3263e-005 3.37159 -0.365456 2.92538 6.23325 2.94831e-006 2.16392e-006 11.64 14.9671 1.37296 4.57866 2.14251 -2.34911e-007 -119.167 0.96956 179.287 -3.89355 -2.60535 -6.48962 -158.853 -32.2823 -93.0365 15.6754 4.13814e-005 -1.79045e-006 -38.1917 -22.3468 63.2302 15.3097 -5.576e-005 -5.75016e-005 -74.2335 -0.000233968 7.59251e-007 16.1724 4.83926e-005 -1.37144e-006 -179.865 -61.8629 169.945 12.9948 -6.70533e-006 2.57068e-005 -0.269701 1.82552 -3.86368 6.0978 3.1204 -5.23679 -126.021 -79.3773 -131.367 -2.85461 -1.34954 7.35618 -153.857 10.6465 82.0239 15.6737 -1.16372e-005 1.89175e-005 -56.3903 57.2627 -52.1681 15.3067 5.27366e-005 -5.96495e-005 -55.872 0.000388084 0.00104015 16.166 0.000246064 -0.000294681 174.349 73.8635 -176.417 12.9879 -0.000276312 -0.000126751 -2.9849 -0.95468 33.0358 5.37131 3.64696 0.4563 53.9676 -79.3753 48.6215 -7.04443 -5.09255 7.4279 -125.059 4.00586 -164.421 15.7527 1.83248e-005 4.98078e-005 -105.381 0.000139338 0.000183794 16.2301 -1.48075e-005 -5.25629e-005 116.317 0.000125459 -0.000203413 13.9751 2.3576e-005 5.01572e-005 -41.4942 5.86085 -5.82992 7.68232 5.03463 2.68921e-006 97.5704 0.576549 -0.38766 -6.8796 -2.59275 -4.95203 -106.824 -11.6879 165.204 15.7513 7.8302e-005 1.44232e-005 -97.8266 8.69932e-005 -0.000113367 16.2291 -8.62613e-005 3.16006e-005 100.71 -0.000118764 -8.03115e-005 13.9754 6.7757e-005 2.13755e-005 -10.7196 4.77597 9.93337 7.68177 5.03424 8.10575e-006 80.5343 0.0770492 -0.211905 -7.95767 -2.82184 9.87847e-006 -1.82467 -12.4787 -166.857 10.9066 -1.89667e-005 0.00177854 44.8192 -9.67958 -8.65318 
38.6031 36.003 -1.96302 -121.058 -78.3785 -3.21939 -3.90785e-007 -1.00197e-007 2.56308e-006 -78.3488 17.2299 -103.783 7.04889 3.36042 -1.95151 -2.7912 -11.5165 -0.446803 14.2457 -0.00765844 0.000743839 -29.2202 -7.33768 -0.127585 16.1411 -3.98967 -0.00029705 -29.9179 4.18967 -1.49187 9.69119 -0.00556463 1.78168e-006 -13.1518 -1.0415 3.73506 6.23549 -3.46297e-006 2.1968e-007 13.6345 12.3005 4.11193 4.58057 2.14337 7.98073e-007 -119.015 0.96869 179.286 -3.39049 -2.77417 -6.70191 -152.324 -32.6124 -90.8429 15.6801 -9.294e-006 2.63551e-006 -42.0241 -16.6436 64.6479 15.3149 -3.06393e-006 2.35662e-006 -72.3078 8.32782e-007 8.17655e-006 16.1779 9.51201e-006 -9.75375e-007 -176.623 -63.2101 171.072 12.9992 2.04468e-007 -1.64427e-007 -0.264471 1.91045 -3.65404 6.09988 3.12148 -5.23853 -126.021 -79.3773 -131.367 -3.02844 -1.75371 7.20229 -149.511 10.7928 84.2414 15.6802 8.33151e-007 -2.13031e-006 -44.3377 46.4045 -60.3063 15.3149 1.44426e-006 4.63998e-007 -59.8033 3.07413e-005 -2.0435e-005 16.1779 3.76912e-006 7.96783e-007 170.201 70.3747 -174.575 12.9992 3.62615e-006 -3.38064e-006 -3.32818 -1.54215 32.7903 5.40476 3.62675 0.658079 53.9725 -79.3763 48.626 -6.819 -5.27671 7.41667 -124.337 3.32125 -164.221 15.7566 -1.64899e-006 2.03908e-007 -102.701 1.72848e-006 -1.9852e-005 16.2363 -1.64799e-006 6.90812e-007 110.18 -1.56209e-005 -1.69418e-006 13.9816 -8.81772e-007 -6.33068e-007 -33.1278 5.43026 -6.54396 7.68591 5.03697 -3.02025e-006 89.4886 -0.0404323 0.0250652 -6.91618 -2.75372 -4.96199 -93.5242 -14.0044 166.444 15.7566 -5.89884e-006 3.05333e-007 -87.5881 -1.40402e-005 -7.92615e-007 16.2363 3.2812e-006 2.41717e-006 101.156 -3.47852e-006 -1.05474e-005 13.9816 -9.21143e-007 2.48156e-006 -9.24055 7.40403 11.6501 7.68595 5.03695 1.62634e-006 79.3065 0.202834 0.157682 -7.95841 -2.82211 -2.49273e-007 0.311564 -12.9425 -165.668 10.9082 -6.48906e-006 0.00176365 40.084 -7.92779 -10.2549 
40.8575 36.3663 -2.36162 -125.425 -78.9278 -7.44511 1.24499e-007 -3.46277e-007 1.15638e-006 -79.4788 14.1155 -102.557 7.26016 2.96238 -1.81708 -6.65259 -11.2508 -1.39702 14.2452 -0.00750282 0.000711851 -28.7221 -5.58202 0.365448 16.1403 -3.98952 -0.000338425 -31.6004 3.78812 -0.14603 9.69135 -0.00549789 -8.27648e-007 -19.1842 -1.22813 3.53118 6.2355 4.28719e-007 1.90407e-007 10.7034 11.1876 3.48516 4.58058 2.14338 -5.20672e-007 -118.863 0.968094 179.285 -3.16259 -2.81797 -6.7928 -149.806 -31.8139 -90.3365 15.6802 3.19884e-007 5.05826e-007 -44.3633 -15.9274 65.5573 15.3149 3.40305e-006 -2.83956e-006 -69.0644 6.42219e-006 1.33985e-005 16.1779 -1.68469e-006 -1.65589e-006 -176.915 -63.692 171.365 12.9992 3.17704e-006 -1.45918e-007 -0.260062 1.98663 -3.59975 6.0999 3.12149 -5.23855 -126.021 -79.3773 -131.367 -3.12654 -1.89622 7.12222 -148.077 11.2671 85.2954 15.6802 -4.67645e-007 2.00909e-006 -40.1939 40.3715 -61.76 15.3149 3.39266e-006 3.3955e-006 -63.5293 -8.77274e-006 2.29096e-005 16.178 -2.08778e-006 -1.0584e-005 170.405 69.3768 -176.107 12.9992 -7.30689e-006 3.22236e-006 -3.32045 -1.50493 31.9026 5.44557 3.59711 0.926922 53.9724 -79.3762 48.626 -6.68935 -5.2983 7.40455 -115.69 5.16424 -164.475 15.7566 7.07691e-006 7.00709e-007 -97.044 -9.53843e-006 9.58126e-006 16.2363 -7.30818e-006 -3.78263e-006 113.228 1.96505e-005 1.33735e-005 13.9816 6.88975e-006 -3.8996e-008 -33.3121 6.12745 -6.5057 7.68592 5.03698 -1.70298e-006 89.9995 0.000327783 0.0168275 -6.99171 -2.83308 -4.98237 -86.0877 -15.7379 168.004 15.7566 -4.97517e-006 1.22534e-006 -77.7629 1.95911e-005 6.28035e-006 16.2364 5.83975e-007 4.10492e-006 96.7829 -1.9728e-005 -7.93182e-006 13.9816 1.58587e-006 2.21268e-006 -7.66157 8.48351 12.2325 7.68598 5.03697 3.82482e-007 79.0112 0.360719 0.421262 -7.95842 -2.82212 4.20965e-007 2.22339 -13.3873 -164.635 10.9082 -7.87468e-006 0.00176374 34.5387 -5.94978 -12.1638 
42.3236 37.5387 -2.56257 -128.689 -79.1967 -10.4013 -9.63367e-007 -7.72491e-007 1.02701e-006 -80.8083 10.6837 -101.345 7.46179 2.51308 -1.67128 -10.6929 -10.7446 -2.41064 14.245 -0.00747303 0.000621128 -26.7793 -3.56097 1.0557 16.1403 -3.98955 -0.000323098 -32.1211 3.48936 0.960899 9.69133 -0.00549342 5.12024e-007 -22.7889 -1.29164 3.09579 6.23549 4.37698e-006 3.05847e-007 6.00081 10.7876 1.7741 4.58056 2.14336 1.9467e-007 -118.71 0.967408 179.284 -3.00816 -2.81058 -6.86554 -148.592 -30.4102 -90.1111 15.6801 -4.40564e-006 -2.25943e-006 -47.3241 -19.4152 65.1567 15.3149 -2.28491e-006 -1.10384e-006 -61.9226 1.06599e-005 1.39502e-005 16.1779 9.18601e-007 -2.60493e-006 -179.725 -63.4056 170.666 12.9992 1.6673e-006 -4.13473e-006 -0.256771 2.0436 -3.8858 6.09988 3.12148 -5.23853 -126.021 -79.3772 -131.368 -3.24194 -1.96162 7.05211 -147.765 11.8789 86.3548 15.6801 5.27007e-007 -7.91268e-007 -38.8427 39.0651 -61.4951 15.3149 1.44891e-006 -7.78519e-007 -62.7926 -1.80428e-005 5.27133e-006 16.1779 2.05272e-006 -3.63116e-006 170.308 69.8158 -178.027 12.9992 -1.62416e-006 4.53862e-007 -3.3426 -1.51975 31.0693 5.49503 3.56115 1.25291 53.9729 -79.3763 48.6265 -6.55971 -5.27616 7.41188 -110.105 6.20003 -164.805 15.7566 -3.30105e-007 2.62974e-006 -89.1198 1.84671e-005 8.16312e-006 16.2363 -1.36845e-006 -1.73628e-006 110.902 8.13122e-006 -1.20045e-005 13.9816 8.39409e-007 2.60332e-006 -32.9739 6.43743 -6.44025 7.68591 5.03696 7.23322e-007 90.0023 0.000586146 0.0310547 -7.08209 -2.92045 -4.989 -82.1635 -17.2623 169.62 15.7566 -5.13836e-006 -5.34946e-007 -68.8036 -6.47369e-006 -1.61393e-005 16.2363 3.34012e-007 2.48438e-006 89.6434 2.45883e-005 -9.57293e-006 13.9816 3.09053e-008 3.40224e-006 -6.00469 8.42561 12.2116 7.68596 5.03696 1.87976e-006 79.2384 0.499917 0.579261 -7.95842 -2.82211 1.30963e-006 3.88658 -13.8154 -163.776 10.9082 -1.07482e-005 0.00176349 29.1726 -3.80412 -13.854 
